<mxfile host="app.diagrams.net" modified="2021-11-24T15:22:47.208Z" agent="5.0 (Windows NT 10.0; Win64; x64) AppleWebKit/537.36 (KHTML, like Gecko) Chrome/92.0.4515.159 Safari/537.36 Edg/92.0.902.84" etag="_pseAEKs8BVjXScwj-_X" version="15.8.0" type="github">
  <diagram id="6a731a19-8d31-9384-78a2-239565b7b9f0" name="Page-1">
    <mxGraphModel dx="1422" dy="772" grid="1" gridSize="10" guides="1" tooltips="1" connect="1" arrows="1" fold="1" page="1" pageScale="1" pageWidth="1169" pageHeight="827" background="none" math="0" shadow="0">
      <root>
        <mxCell id="0" />
        <mxCell id="1" parent="0" />
        <mxCell id="1350" value="Team Foundation Server&lt;br&gt;Mysys" style="ellipse;whiteSpace=wrap;html=1;shadow=0;fontFamily=Helvetica;fontSize=20;fontColor=#FFFFFF;align=center;strokeWidth=3;fillColor=#1699D3;strokeColor=none;" parent="1" vertex="1">
          <mxGeometry x="523.5" y="271.5" width="126.5" height="118.5" as="geometry" />
        </mxCell>
        <mxCell id="q9qTEmQOXEux0ovmEw0c-1572" value="" style="edgeStyle=none;orthogonalLoop=1;jettySize=auto;html=1;endArrow=none;strokeColor=#F08E81;strokeWidth=3;" edge="1" parent="1" source="1351" target="q9qTEmQOXEux0ovmEw0c-1571">
          <mxGeometry relative="1" as="geometry" />
        </mxCell>
        <mxCell id="q9qTEmQOXEux0ovmEw0c-1578" value="" style="edgeStyle=none;orthogonalLoop=1;jettySize=auto;html=1;endArrow=none;strokeColor=#F08E81;strokeWidth=3;" edge="1" parent="1" source="1351" target="q9qTEmQOXEux0ovmEw0c-1577">
          <mxGeometry relative="1" as="geometry" />
        </mxCell>
        <mxCell id="1351" value="Azure Devops Server ULD" style="ellipse;whiteSpace=wrap;html=1;shadow=0;fontFamily=Helvetica;fontSize=20;fontColor=#FFFFFF;align=center;strokeWidth=3;fillColor=#F08705;strokeColor=none;gradientColor=none;" parent="1" vertex="1">
          <mxGeometry x="990" y="210" width="140" height="140" as="geometry" />
        </mxCell>
        <mxCell id="q9qTEmQOXEux0ovmEw0c-1584" value="" style="edgeStyle=none;orthogonalLoop=1;jettySize=auto;html=1;endArrow=none;strokeColor=#E85642;strokeWidth=6;entryX=1;entryY=0;entryDx=0;entryDy=0;" edge="1" parent="1" source="1352" target="1515">
          <mxGeometry relative="1" as="geometry" />
        </mxCell>
        <mxCell id="1352" value="Point d&#39;entrÃ©e ULD" style="ellipse;whiteSpace=wrap;html=1;shadow=0;fontFamily=Helvetica;fontSize=20;fontColor=#FFFFFF;align=center;strokeWidth=3;fillColor=#E85642;strokeColor=none;" parent="1" vertex="1">
          <mxGeometry x="1289" y="261.5" width="131" height="138.5" as="geometry" />
        </mxCell>
        <mxCell id="q9qTEmQOXEux0ovmEw0c-1595" value="" style="edgeStyle=none;orthogonalLoop=1;jettySize=auto;html=1;fontSize=14;endArrow=none;strokeColor=#F08E81;strokeWidth=3;" edge="1" parent="1" source="1355" target="1478">
          <mxGeometry relative="1" as="geometry" />
        </mxCell>
        <mxCell id="q9qTEmQOXEux0ovmEw0c-1596" value="" style="edgeStyle=none;orthogonalLoop=1;jettySize=auto;html=1;fontSize=14;endArrow=none;strokeColor=#F08E81;strokeWidth=3;" edge="1" parent="1" source="1355" target="1478">
          <mxGeometry relative="1" as="geometry" />
        </mxCell>
        <mxCell id="1355" value="CI /&amp;nbsp;CD" style="ellipse;whiteSpace=wrap;html=1;shadow=0;fontFamily=Helvetica;fontSize=20;fontColor=#FFFFFF;align=center;strokeWidth=3;fillColor=#F08705;strokeColor=none;" parent="1" vertex="1">
          <mxGeometry x="1180" y="650" width="120" height="120" as="geometry" />
        </mxCell>
        <mxCell id="1356" value="Administration" style="ellipse;whiteSpace=wrap;html=1;shadow=0;fontFamily=Helvetica;fontSize=20;fontColor=#FFFFFF;align=center;strokeWidth=3;fillColor=#E85642;strokeColor=none;" parent="1" vertex="1">
          <mxGeometry x="260" y="528" width="152.01" height="128.5" as="geometry" />
        </mxCell>
        <mxCell id="1358" value="NEO" style="rounded=1;fillColor=#64BBE2;strokeColor=none;strokeWidth=3;shadow=0;html=1;fontColor=#FFFFFF;" parent="1" vertex="1">
          <mxGeometry x="490" y="451.5" width="130" height="40" as="geometry" />
        </mxCell>
        <mxCell id="1359" style="endArrow=none;strokeWidth=6;strokeColor=#1699D3;html=1;" parent="1" source="1515" target="1350" edge="1">
          <mxGeometry relative="1" as="geometry" />
        </mxCell>
        <mxCell id="1360" style="endArrow=none;strokeWidth=6;strokeColor=#f08705;html=1;" parent="1" source="1515" target="1351" edge="1">
          <mxGeometry relative="1" as="geometry" />
        </mxCell>
        <mxCell id="1361" style="endArrow=none;strokeWidth=6;strokeColor=#E85642;html=1;exitX=1;exitY=0.5;exitDx=0;exitDy=0;" parent="1" source="1351" target="1352" edge="1">
          <mxGeometry relative="1" as="geometry" />
        </mxCell>
        <mxCell id="1363" style="endArrow=none;strokeWidth=6;strokeColor=#736CA8;html=1;exitX=0;exitY=1;exitDx=0;exitDy=0;" parent="1" source="1515" target="1516" edge="1">
          <mxGeometry relative="1" as="geometry">
            <mxPoint x="434.5" y="949.5" as="sourcePoint" />
          </mxGeometry>
        </mxCell>
        <mxCell id="1365" value="" style="edgeStyle=none;endArrow=none;strokeWidth=6;strokeColor=#F08705;html=1;" parent="1" source="1515" target="1355" edge="1">
          <mxGeometry x="181" y="226.5" width="100" height="100" as="geometry">
            <mxPoint x="181" y="326.5" as="sourcePoint" />
            <mxPoint x="281" y="226.5" as="targetPoint" />
          </mxGeometry>
        </mxCell>
        <mxCell id="1366" value="" style="edgeStyle=none;endArrow=none;strokeWidth=6;strokeColor=#E85642;html=1;exitX=0;exitY=1;exitDx=0;exitDy=0;entryX=0.834;entryY=0.153;entryDx=0;entryDy=0;entryPerimeter=0;" parent="1" source="1350" target="1356" edge="1">
          <mxGeometry x="181" y="226.5" width="100" height="100" as="geometry">
            <mxPoint x="520" y="350" as="sourcePoint" />
            <mxPoint x="281" y="226.5" as="targetPoint" />
          </mxGeometry>
        </mxCell>
        <mxCell id="1368" value="BAD" style="rounded=1;fillColor=#64BBE2;strokeColor=none;strokeWidth=3;shadow=0;html=1;fontColor=#FFFFFF;" parent="1" vertex="1">
          <mxGeometry x="309.5" y="320" width="130" height="40" as="geometry" />
        </mxCell>
        <mxCell id="1369" value="MyWay RIA V2" style="rounded=1;fillColor=#64BBE2;strokeColor=none;strokeWidth=3;shadow=0;html=1;fontColor=#FFFFFF;" parent="1" vertex="1">
          <mxGeometry x="304.5" y="246.5" width="130" height="40" as="geometry" />
        </mxCell>
        <mxCell id="1370" value="MyWay RIA V1" style="rounded=1;fillColor=#64BBE2;strokeColor=none;strokeWidth=3;shadow=0;html=1;fontColor=#FFFFFF;" parent="1" vertex="1">
          <mxGeometry x="370" y="181.5" width="130" height="40" as="geometry" />
        </mxCell>
        <mxCell id="1371" value="Atelier Myway ROA V1" style="rounded=1;fillColor=#64BBE2;strokeColor=none;strokeWidth=3;shadow=0;html=1;fontColor=#FFFFFF;" parent="1" vertex="1">
          <mxGeometry x="430" y="110" width="139.5" height="40" as="geometry" />
        </mxCell>
        <mxCell id="1372" value="Atelier BAPI / MyAPI" style="rounded=1;fillColor=#64BBE2;strokeColor=none;strokeWidth=3;shadow=0;html=1;fontColor=#FFFFFF;" parent="1" vertex="1">
          <mxGeometry x="585" y="130" width="130" height="40" as="geometry" />
        </mxCell>
        <mxCell id="1373" value="Divers Atelier OPEN" style="rounded=1;fillColor=#64BBE2;strokeColor=none;strokeWidth=3;shadow=0;html=1;fontColor=#FFFFFF;" parent="1" vertex="1">
          <mxGeometry x="650" y="221.5" width="170" height="48.5" as="geometry" />
        </mxCell>
        <mxCell id="1374" value="Atelier PMM" style="rounded=1;fillColor=#64BBE2;strokeColor=none;strokeWidth=3;shadow=0;html=1;fontColor=#FFFFFF;" parent="1" vertex="1">
          <mxGeometry x="705" y="301.5" width="130" height="40" as="geometry" />
        </mxCell>
        <mxCell id="1379" value="" style="edgeStyle=none;endArrow=none;strokeWidth=3;strokeColor=#64BBE2;html=1;" parent="1" target="1358" edge="1">
          <mxGeometry x="-221.5" y="56.5" width="100" height="100" as="geometry">
            <mxPoint x="587" y="390" as="sourcePoint" />
            <mxPoint x="-121.5" y="56.5" as="targetPoint" />
          </mxGeometry>
        </mxCell>
        <mxCell id="1380" value="" style="edgeStyle=none;endArrow=none;strokeWidth=3;strokeColor=#64BBE2;html=1;exitX=0;exitY=0.5;exitDx=0;exitDy=0;" parent="1" source="1350" target="1368" edge="1">
          <mxGeometry x="-221.51" y="130" width="100" height="100" as="geometry">
            <mxPoint x="523.5044107449851" y="405.5147117851004" as="sourcePoint" />
            <mxPoint x="-121.51" y="130" as="targetPoint" />
          </mxGeometry>
        </mxCell>
        <mxCell id="1381" value="" style="edgeStyle=none;endArrow=none;strokeWidth=3;strokeColor=#64BBE2;html=1;entryX=1;entryY=0.5;entryDx=0;entryDy=0;" parent="1" source="1350" target="1369" edge="1">
          <mxGeometry x="-221.5" y="56.5" width="100" height="100" as="geometry">
            <mxPoint x="-221.5" y="156.5" as="sourcePoint" />
            <mxPoint x="-121.5" y="56.5" as="targetPoint" />
          </mxGeometry>
        </mxCell>
        <mxCell id="1382" value="" style="edgeStyle=none;endArrow=none;strokeWidth=3;strokeColor=#64BBE2;html=1;" parent="1" source="1350" target="1370" edge="1">
          <mxGeometry x="-221.5" y="56.5" width="100" height="100" as="geometry">
            <mxPoint x="-221.5" y="156.5" as="sourcePoint" />
            <mxPoint x="-121.5" y="56.5" as="targetPoint" />
          </mxGeometry>
        </mxCell>
        <mxCell id="1383" value="" style="edgeStyle=none;endArrow=none;strokeWidth=3;strokeColor=#64BBE2;html=1;" parent="1" source="1350" target="1371" edge="1">
          <mxGeometry x="-221.5" y="56.5" width="100" height="100" as="geometry">
            <mxPoint x="-221.5" y="156.5" as="sourcePoint" />
            <mxPoint x="-121.5" y="56.5" as="targetPoint" />
          </mxGeometry>
        </mxCell>
        <mxCell id="1384" value="" style="edgeStyle=none;endArrow=none;strokeWidth=3;strokeColor=#64BBE2;html=1;" parent="1" source="1350" target="1372" edge="1">
          <mxGeometry x="-221.5" y="56.5" width="100" height="100" as="geometry">
            <mxPoint x="-221.5" y="156.5" as="sourcePoint" />
            <mxPoint x="-121.5" y="56.5" as="targetPoint" />
          </mxGeometry>
        </mxCell>
        <mxCell id="1385" value="" style="edgeStyle=none;endArrow=none;strokeWidth=3;strokeColor=#64BBE2;html=1;" parent="1" source="1350" target="1373" edge="1">
          <mxGeometry x="-221.5" y="56.5" width="100" height="100" as="geometry">
            <mxPoint x="-221.5" y="156.5" as="sourcePoint" />
            <mxPoint x="-121.5" y="56.5" as="targetPoint" />
          </mxGeometry>
        </mxCell>
        <mxCell id="1386" value="" style="edgeStyle=none;endArrow=none;strokeWidth=3;strokeColor=#64BBE2;html=1;" parent="1" source="1350" target="1374" edge="1">
          <mxGeometry x="-221.5" y="56.5" width="100" height="100" as="geometry">
            <mxPoint x="-221.5" y="156.5" as="sourcePoint" />
            <mxPoint x="-121.5" y="56.5" as="targetPoint" />
          </mxGeometry>
        </mxCell>
        <mxCell id="q9qTEmQOXEux0ovmEw0c-1579" value="" style="edgeStyle=none;orthogonalLoop=1;jettySize=auto;html=1;endArrow=none;strokeColor=#F08E81;strokeWidth=3;" edge="1" parent="1" source="1392" target="q9qTEmQOXEux0ovmEw0c-1577">
          <mxGeometry relative="1" as="geometry" />
        </mxCell>
        <mxCell id="1392" value="C36O" style="rounded=1;fillColor=#f5af58;strokeColor=none;strokeWidth=3;shadow=0;html=1;fontColor=#FFFFFF;" parent="1" vertex="1">
          <mxGeometry x="850" y="190" width="90" height="38.5" as="geometry" />
        </mxCell>
        <mxCell id="1412" value="Habilitations" style="rounded=1;fillColor=#f08e81;strokeColor=none;strokeWidth=3;shadow=0;html=1;fontColor=#FFFFFF;" parent="1" vertex="1">
          <mxGeometry x="1440" y="330" width="120" height="40" as="geometry" />
        </mxCell>
        <mxCell id="1418" value="Artifactory ULD" style="rounded=1;fillColor=#f08e81;strokeColor=none;strokeWidth=3;shadow=0;html=1;fontColor=#FFFFFF;" parent="1" vertex="1">
          <mxGeometry x="1294.5" y="188.5" width="120" height="40" as="geometry" />
        </mxCell>
        <mxCell id="1419" value="Sonar ULD" style="rounded=1;fillColor=#f08e81;strokeColor=none;strokeWidth=3;shadow=0;html=1;fontColor=#FFFFFF;" parent="1" vertex="1">
          <mxGeometry x="1440" y="200" width="120" height="40" as="geometry" />
        </mxCell>
        <mxCell id="1429" value="" style="edgeStyle=none;endArrow=none;strokeWidth=3;strokeColor=#F08E81;html=1;" parent="1" source="1352" target="1418" edge="1">
          <mxGeometry x="31" y="106.5" width="100" height="100" as="geometry">
            <mxPoint x="31" y="206.5" as="sourcePoint" />
            <mxPoint x="131" y="106.5" as="targetPoint" />
          </mxGeometry>
        </mxCell>
        <mxCell id="1430" value="" style="edgeStyle=none;endArrow=none;strokeWidth=3;strokeColor=#F08E81;html=1;" parent="1" source="1352" target="1419" edge="1">
          <mxGeometry x="31" y="106.5" width="100" height="100" as="geometry">
            <mxPoint x="31" y="206.5" as="sourcePoint" />
            <mxPoint x="131" y="106.5" as="targetPoint" />
          </mxGeometry>
        </mxCell>
        <mxCell id="1431" value="" style="edgeStyle=none;endArrow=none;strokeWidth=3;strokeColor=#F08E81;html=1;" parent="1" source="1352" target="1412" edge="1">
          <mxGeometry x="31" y="106.5" width="100" height="100" as="geometry">
            <mxPoint x="31" y="206.5" as="sourcePoint" />
            <mxPoint x="131" y="106.5" as="targetPoint" />
          </mxGeometry>
        </mxCell>
        <mxCell id="1477" value="Veille technologique" style="rounded=1;fillColor=#f5af58;strokeColor=none;strokeWidth=3;shadow=0;html=1;fontColor=#FFFFFF;fontSize=14;" parent="1" vertex="1">
          <mxGeometry x="1110" y="810" width="140" height="60" as="geometry" />
        </mxCell>
        <mxCell id="1478" value="Coordination avec TIL DCE" style="rounded=1;fillColor=#f5af58;strokeColor=none;strokeWidth=3;shadow=0;html=1;fontColor=#FFFFFF;" parent="1" vertex="1">
          <mxGeometry x="1289" y="770" width="160" height="40" as="geometry" />
        </mxCell>
        <mxCell id="1479" value="" style="edgeStyle=none;endArrow=none;strokeWidth=3;strokeColor=#F5AF58;html=1;" parent="1" source="1355" target="1478" edge="1">
          <mxGeometry x="243.5" y="39" width="100" height="100" as="geometry">
            <mxPoint x="243.5" y="139" as="sourcePoint" />
            <mxPoint x="343.5" y="39" as="targetPoint" />
          </mxGeometry>
        </mxCell>
        <mxCell id="1489" value="" style="edgeStyle=none;endArrow=none;strokeWidth=3;strokeColor=#F5AF58;html=1;" parent="1" source="1355" target="1477" edge="1">
          <mxGeometry x="243.5" y="39" width="100" height="100" as="geometry">
            <mxPoint x="243.5" y="139" as="sourcePoint" />
            <mxPoint x="343.5" y="39" as="targetPoint" />
          </mxGeometry>
        </mxCell>
        <mxCell id="1490" value="CrÃ©ation de dÃ©pÃ´ts GIT" style="rounded=1;fillColor=#f08e81;strokeColor=none;strokeWidth=3;shadow=0;html=1;fontColor=#FFFFFF;" parent="1" vertex="1">
          <mxGeometry x="240" y="421.5" width="146.5" height="40" as="geometry" />
        </mxCell>
        <mxCell id="1491" value="CrÃ©ation de projets d&#39;Ã©quipe" style="rounded=1;fillColor=#f08e81;strokeColor=none;strokeWidth=3;shadow=0;html=1;fontColor=#FFFFFF;" parent="1" vertex="1">
          <mxGeometry x="120" y="488" width="158.5" height="40" as="geometry" />
        </mxCell>
        <mxCell id="1492" value="Documentation" style="rounded=1;fillColor=#f08e81;strokeColor=none;strokeWidth=3;shadow=0;html=1;fontColor=#FFFFFF;" parent="1" vertex="1">
          <mxGeometry x="120" y="550" width="120" height="40" as="geometry" />
        </mxCell>
        <mxCell id="1493" value="MontÃ©es de version" style="rounded=1;fillColor=#f08e81;strokeColor=none;strokeWidth=3;shadow=0;html=1;fontColor=#FFFFFF;" parent="1" vertex="1">
          <mxGeometry x="140" y="620" width="120" height="40" as="geometry" />
        </mxCell>
        <mxCell id="1494" value="Surveillance" style="rounded=1;fillColor=#f08e81;strokeColor=none;strokeWidth=3;shadow=0;html=1;fontColor=#FFFFFF;" parent="1" vertex="1">
          <mxGeometry x="420" y="650" width="120" height="40" as="geometry" />
        </mxCell>
        <mxCell id="1503" value="" style="edgeStyle=none;endArrow=none;strokeWidth=3;strokeColor=#F08E81;html=1;" parent="1" source="1356" target="1490" edge="1">
          <mxGeometry x="-313.51" y="-502.5" width="100" height="100" as="geometry">
            <mxPoint x="-313.51" y="-402.5" as="sourcePoint" />
            <mxPoint x="-213.51" y="-502.5" as="targetPoint" />
          </mxGeometry>
        </mxCell>
        <mxCell id="1504" value="" style="edgeStyle=none;endArrow=none;strokeWidth=3;strokeColor=#F08E81;html=1;" parent="1" source="1356" target="1491" edge="1">
          <mxGeometry x="-313.51" y="-502.5" width="100" height="100" as="geometry">
            <mxPoint x="-313.51" y="-402.5" as="sourcePoint" />
            <mxPoint x="-213.51" y="-502.5" as="targetPoint" />
          </mxGeometry>
        </mxCell>
        <mxCell id="1505" value="" style="edgeStyle=none;endArrow=none;strokeWidth=3;strokeColor=#F08E81;html=1;" parent="1" source="1356" target="1492" edge="1">
          <mxGeometry x="-313.51" y="-502.5" width="100" height="100" as="geometry">
            <mxPoint x="-313.51" y="-402.5" as="sourcePoint" />
            <mxPoint x="-213.51" y="-502.5" as="targetPoint" />
          </mxGeometry>
        </mxCell>
        <mxCell id="1506" value="" style="edgeStyle=none;endArrow=none;strokeWidth=3;strokeColor=#F08E81;html=1;" parent="1" source="1356" target="1493" edge="1">
          <mxGeometry x="-313.51" y="-502.5" width="100" height="100" as="geometry">
            <mxPoint x="-313.51" y="-402.5" as="sourcePoint" />
            <mxPoint x="-213.51" y="-502.5" as="targetPoint" />
          </mxGeometry>
        </mxCell>
        <mxCell id="1507" value="" style="edgeStyle=none;endArrow=none;strokeWidth=3;strokeColor=#F08E81;html=1;" parent="1" source="1356" target="1494" edge="1">
          <mxGeometry x="-313.51" y="-502.5" width="100" height="100" as="geometry">
            <mxPoint x="-313.51" y="-402.5" as="sourcePoint" />
            <mxPoint x="-213.51" y="-502.5" as="targetPoint" />
          </mxGeometry>
        </mxCell>
        <mxCell id="1514" style="edgeStyle=orthogonalEdgeStyle;rounded=0;html=1;exitX=0.75;exitY=0;entryX=0.75;entryY=0;startArrow=none;startFill=0;endArrow=block;endFill=1;jettySize=auto;orthogonalLoop=1;strokeColor=#12aab5;strokeWidth=6;fontSize=20;fontColor=#2F5B7C;" parent="1" edge="1">
          <mxGeometry relative="1" as="geometry">
            <mxPoint x="1611" y="371.5" as="sourcePoint" />
            <mxPoint x="1611" y="371.5" as="targetPoint" />
          </mxGeometry>
        </mxCell>
        <mxCell id="q9qTEmQOXEux0ovmEw0c-1586" value="" style="edgeStyle=none;orthogonalLoop=1;jettySize=auto;html=1;endArrow=none;strokeColor=#E85642;strokeWidth=6;entryX=1;entryY=0.5;entryDx=0;entryDy=0;exitX=0;exitY=0.5;exitDx=0;exitDy=0;" edge="1" parent="1" source="1515" target="1356">
          <mxGeometry relative="1" as="geometry">
            <mxPoint x="806" y="811.5" as="targetPoint" />
          </mxGeometry>
        </mxCell>
        <mxCell id="1515" value="Source Control Management&lt;br&gt;IT-CE" style="ellipse;whiteSpace=wrap;html=1;shadow=0;fontFamily=Helvetica;fontSize=30;fontColor=#2F5B7C;align=center;strokeColor=#2F5B7C;strokeWidth=6;fillColor=#FFFFFF;fontStyle=1;gradientColor=none;" parent="1" vertex="1">
          <mxGeometry x="860" y="550" width="270" height="270" as="geometry" />
        </mxCell>
        <mxCell id="1516" value="Assistance aux DSM" style="ellipse;whiteSpace=wrap;html=1;shadow=0;fontFamily=Helvetica;fontSize=20;fontColor=#FFFFFF;align=center;strokeWidth=3;fillColor=#736ca8;strokeColor=none;" parent="1" vertex="1">
          <mxGeometry x="475" y="965.25" width="120" height="120" as="geometry" />
        </mxCell>
        <mxCell id="1517" value="Organisation des projets&lt;br&gt;d&#39;Ã©quipe" style="rounded=1;fillColor=#a29dc5;strokeColor=none;strokeWidth=3;shadow=0;html=1;fontColor=#FFFFFF;" parent="1" vertex="1">
          <mxGeometry x="290" y="940" width="154.25" height="54.12" as="geometry" />
        </mxCell>
        <mxCell id="1518" value="Gestion TFVC" style="rounded=1;fillColor=#a29dc5;strokeColor=none;strokeWidth=3;shadow=0;html=1;fontColor=#FFFFFF;" parent="1" vertex="1">
          <mxGeometry x="420" y="870" width="120" height="40" as="geometry" />
        </mxCell>
        <mxCell id="1519" value="Gestion GIT" style="rounded=1;fillColor=#a29dc5;strokeColor=none;strokeWidth=3;shadow=0;html=1;fontColor=#FFFFFF;" parent="1" vertex="1">
          <mxGeometry x="590" y="850" width="120" height="40" as="geometry" />
        </mxCell>
        <mxCell id="1520" value="PrÃ©sentations / &lt;br&gt;Formations" style="rounded=1;fillColor=#a29dc5;strokeColor=none;strokeWidth=3;shadow=0;html=1;fontColor=#FFFFFF;" parent="1" vertex="1">
          <mxGeometry x="660" y="990.25" width="120" height="40" as="geometry" />
        </mxCell>
        <mxCell id="1521" value="Documentation" style="rounded=1;fillColor=#a29dc5;strokeColor=none;strokeWidth=3;shadow=0;html=1;fontColor=#FFFFFF;" parent="1" vertex="1">
          <mxGeometry x="635" y="1070.25" width="120" height="40" as="geometry" />
        </mxCell>
        <mxCell id="1524" value="Habilitations" style="rounded=1;fillColor=#a29dc5;strokeColor=none;strokeWidth=3;shadow=0;html=1;fontColor=#FFFFFF;" parent="1" vertex="1">
          <mxGeometry x="338.5" y="1080" width="120" height="40" as="geometry" />
        </mxCell>
        <mxCell id="1528" value="" style="edgeStyle=none;endArrow=none;strokeWidth=3;strokeColor=#A29DC5;html=1;" parent="1" source="1516" target="1517" edge="1">
          <mxGeometry x="-1350" y="11.25" width="100" height="100" as="geometry">
            <mxPoint x="-1350" y="111.25" as="sourcePoint" />
            <mxPoint x="-1250" y="11.25" as="targetPoint" />
          </mxGeometry>
        </mxCell>
        <mxCell id="1530" value="" style="edgeStyle=none;endArrow=none;strokeWidth=3;strokeColor=#A29DC5;html=1;" parent="1" source="1516" target="1518" edge="1">
          <mxGeometry x="-1350" y="11.25" width="100" height="100" as="geometry">
            <mxPoint x="-1350" y="111.25" as="sourcePoint" />
            <mxPoint x="-1250" y="11.25" as="targetPoint" />
          </mxGeometry>
        </mxCell>
        <mxCell id="1531" value="" style="edgeStyle=none;endArrow=none;strokeWidth=3;strokeColor=#A29DC5;html=1;" parent="1" source="1516" target="1519" edge="1">
          <mxGeometry x="-1350" y="11.25" width="100" height="100" as="geometry">
            <mxPoint x="-1350" y="111.25" as="sourcePoint" />
            <mxPoint x="-1250" y="11.25" as="targetPoint" />
          </mxGeometry>
        </mxCell>
        <mxCell id="1532" value="" style="edgeStyle=none;endArrow=none;strokeWidth=3;strokeColor=#A29DC5;html=1;" parent="1" source="1516" target="1520" edge="1">
          <mxGeometry x="-1350" y="11.25" width="100" height="100" as="geometry">
            <mxPoint x="-1350" y="111.25" as="sourcePoint" />
            <mxPoint x="-1250" y="11.25" as="targetPoint" />
          </mxGeometry>
        </mxCell>
        <mxCell id="1533" value="" style="edgeStyle=none;endArrow=none;strokeWidth=3;strokeColor=#A29DC5;html=1;entryX=0;entryY=0.5;entryDx=0;entryDy=0;" parent="1" source="1516" target="1521" edge="1">
          <mxGeometry x="-1350" y="11.25" width="100" height="100" as="geometry">
            <mxPoint x="-1350" y="111.25" as="sourcePoint" />
            <mxPoint x="687.5" y="1059.0086206896551" as="targetPoint" />
          </mxGeometry>
        </mxCell>
        <mxCell id="1536" value="" style="edgeStyle=none;endArrow=none;strokeWidth=3;strokeColor=#A29DC5;html=1;" parent="1" source="1516" target="1524" edge="1">
          <mxGeometry x="-1350" y="11.25" width="100" height="100" as="geometry">
            <mxPoint x="-1350" y="111.25" as="sourcePoint" />
            <mxPoint x="-1250" y="11.25" as="targetPoint" />
          </mxGeometry>
        </mxCell>
        <mxCell id="1542" style="edgeStyle=none;rounded=0;html=1;exitX=0.5;exitY=1;endArrow=none;endFill=0;jettySize=auto;orthogonalLoop=1;strokeColor=#736CA8;strokeWidth=2;fillColor=#64bbe2;fontSize=20;fontColor=#23445D;" parent="1" edge="1">
          <mxGeometry relative="1" as="geometry">
            <mxPoint x="285" y="1086.25" as="sourcePoint" />
            <mxPoint x="285" y="1086.25" as="targetPoint" />
          </mxGeometry>
        </mxCell>
        <mxCell id="q9qTEmQOXEux0ovmEw0c-1548" value="" style="edgeStyle=none;orthogonalLoop=1;jettySize=auto;html=1;endArrow=none;strokeColor=#64BBE2;strokeWidth=3;" edge="1" parent="1" source="q9qTEmQOXEux0ovmEw0c-1545" target="1350">
          <mxGeometry relative="1" as="geometry" />
        </mxCell>
        <mxCell id="q9qTEmQOXEux0ovmEw0c-1545" value="Divers .Net" style="rounded=1;fillColor=#64BBE2;strokeColor=none;strokeWidth=3;shadow=0;html=1;fontColor=#FFFFFF;" vertex="1" parent="1">
          <mxGeometry x="620" y="520" width="130" height="40" as="geometry" />
        </mxCell>
        <mxCell id="q9qTEmQOXEux0ovmEw0c-1550" value="" style="edgeStyle=none;orthogonalLoop=1;jettySize=auto;html=1;endArrow=none;strokeColor=#64BBE2;strokeWidth=3;exitX=0.5;exitY=0;exitDx=0;exitDy=0;" edge="1" parent="1" source="q9qTEmQOXEux0ovmEw0c-1549" target="1350">
          <mxGeometry relative="1" as="geometry" />
        </mxCell>
        <mxCell id="q9qTEmQOXEux0ovmEw0c-1549" value="IPROX" style="rounded=1;fillColor=#64BBE2;strokeColor=none;strokeWidth=3;shadow=0;html=1;fontColor=#FFFFFF;" vertex="1" parent="1">
          <mxGeometry x="713.5" y="381.5" width="130" height="40" as="geometry" />
        </mxCell>
        <mxCell id="q9qTEmQOXEux0ovmEw0c-1558" value="" style="edgeStyle=none;orthogonalLoop=1;jettySize=auto;html=1;endArrow=none;strokeColor=#F5AF58;strokeWidth=3;" edge="1" parent="1" source="q9qTEmQOXEux0ovmEw0c-1557" target="1355">
          <mxGeometry relative="1" as="geometry" />
        </mxCell>
        <mxCell id="q9qTEmQOXEux0ovmEw0c-1557" value="pipeline as code" style="rounded=1;fillColor=#f5af58;strokeColor=none;strokeWidth=3;shadow=0;html=1;fontColor=#FFFFFF;" vertex="1" parent="1">
          <mxGeometry x="1340" y="680" width="120" height="40" as="geometry" />
        </mxCell>
        <mxCell id="q9qTEmQOXEux0ovmEw0c-1560" value="" style="edgeStyle=none;orthogonalLoop=1;jettySize=auto;html=1;endArrow=none;strokeColor=#F5AF58;strokeWidth=3;entryX=0.5;entryY=0;entryDx=0;entryDy=0;" edge="1" parent="1" source="q9qTEmQOXEux0ovmEw0c-1559" target="1355">
          <mxGeometry relative="1" as="geometry" />
        </mxCell>
        <mxCell id="q9qTEmQOXEux0ovmEw0c-1559" value="CrÃ©ation de modÃ¨les" style="rounded=1;fillColor=#f5af58;strokeColor=none;strokeWidth=3;shadow=0;html=1;fontColor=#FFFFFF;" vertex="1" parent="1">
          <mxGeometry x="1160" y="572.25" width="120" height="40" as="geometry" />
        </mxCell>
        <mxCell id="q9qTEmQOXEux0ovmEw0c-1562" value="" style="edgeStyle=none;orthogonalLoop=1;jettySize=auto;html=1;endArrow=none;strokeColor=#F08E81;strokeWidth=3;" edge="1" parent="1" source="q9qTEmQOXEux0ovmEw0c-1561" target="1356">
          <mxGeometry relative="1" as="geometry" />
        </mxCell>
        <mxCell id="q9qTEmQOXEux0ovmEw0c-1561" value="KPI" style="rounded=1;fillColor=#f08e81;strokeColor=none;strokeWidth=3;shadow=0;html=1;fontColor=#FFFFFF;" vertex="1" parent="1">
          <mxGeometry x="210" y="680" width="120" height="40" as="geometry" />
        </mxCell>
        <mxCell id="q9qTEmQOXEux0ovmEw0c-1564" value="" style="edgeStyle=none;orthogonalLoop=1;jettySize=auto;html=1;endArrow=none;strokeColor=#F08E81;strokeWidth=3;entryX=1;entryY=1;entryDx=0;entryDy=0;" edge="1" parent="1" source="q9qTEmQOXEux0ovmEw0c-1563" target="1356">
          <mxGeometry relative="1" as="geometry">
            <mxPoint x="440" y="570" as="targetPoint" />
          </mxGeometry>
        </mxCell>
        <mxCell id="q9qTEmQOXEux0ovmEw0c-1563" value="Automatisations" style="rounded=1;fillColor=#f08e81;strokeColor=none;strokeWidth=3;shadow=0;html=1;fontColor=#FFFFFF;" vertex="1" parent="1">
          <mxGeometry x="355" y="720" width="120" height="40" as="geometry" />
        </mxCell>
        <mxCell id="q9qTEmQOXEux0ovmEw0c-1569" value="" style="edgeStyle=none;orthogonalLoop=1;jettySize=auto;html=1;endArrow=none;strokeColor=#F08E81;strokeWidth=3;entryX=1;entryY=1;entryDx=0;entryDy=0;" edge="1" parent="1" source="q9qTEmQOXEux0ovmEw0c-1568" target="1352">
          <mxGeometry relative="1" as="geometry" />
        </mxCell>
        <mxCell id="q9qTEmQOXEux0ovmEw0c-1568" value="RÃ©fÃ©rent Azure" style="rounded=1;fillColor=#f08e81;strokeColor=none;strokeWidth=3;shadow=0;html=1;fontColor=#FFFFFF;" vertex="1" parent="1">
          <mxGeometry x="1361" y="421.5" width="120" height="40" as="geometry" />
        </mxCell>
        <mxCell id="q9qTEmQOXEux0ovmEw0c-1571" value="&lt;span style=&quot;font-size: 12px&quot;&gt;Roadmap de migration 2922&lt;/span&gt;" style="ellipse;whiteSpace=wrap;html=1;shadow=0;fontSize=20;fontColor=#FFFFFF;strokeColor=none;strokeWidth=3;fillColor=#F08705;" vertex="1" parent="1">
          <mxGeometry x="1080" y="53" width="120" height="67" as="geometry" />
        </mxCell>
        <mxCell id="q9qTEmQOXEux0ovmEw0c-1574" value="" style="edgeStyle=none;orthogonalLoop=1;jettySize=auto;html=1;endArrow=none;strokeColor=#F08E81;strokeWidth=3;exitX=0.092;exitY=0.875;exitDx=0;exitDy=0;exitPerimeter=0;entryX=1;entryY=0;entryDx=0;entryDy=0;" edge="1" parent="1" source="q9qTEmQOXEux0ovmEw0c-1582" target="1351">
          <mxGeometry relative="1" as="geometry">
            <mxPoint x="1180.45645226704" y="198.5" as="sourcePoint" />
          </mxGeometry>
        </mxCell>
        <mxCell id="q9qTEmQOXEux0ovmEw0c-1577" value="&lt;span style=&quot;font-size: 12px&quot;&gt;Projets Pilote Cloud Azure&lt;/span&gt;" style="ellipse;whiteSpace=wrap;html=1;shadow=0;fontSize=20;fontColor=#FFFFFF;strokeColor=none;strokeWidth=3;fillColor=#F08705;" vertex="1" parent="1">
          <mxGeometry x="950" y="113" width="120" height="60" as="geometry" />
        </mxCell>
        <mxCell id="q9qTEmQOXEux0ovmEw0c-1581" value="" style="edgeStyle=none;orthogonalLoop=1;jettySize=auto;html=1;endArrow=none;strokeColor=#F08E81;strokeWidth=3;entryX=0;entryY=0.5;entryDx=0;entryDy=0;" edge="1" parent="1" source="q9qTEmQOXEux0ovmEw0c-1580" target="q9qTEmQOXEux0ovmEw0c-1577">
          <mxGeometry relative="1" as="geometry">
            <mxPoint x="1000" y="160" as="targetPoint" />
          </mxGeometry>
        </mxCell>
        <mxCell id="q9qTEmQOXEux0ovmEw0c-1580" value="MyPote" style="rounded=1;fillColor=#f5af58;strokeColor=none;strokeWidth=3;shadow=0;html=1;fontColor=#FFFFFF;" vertex="1" parent="1">
          <mxGeometry x="835" y="113" width="90" height="38.5" as="geometry" />
        </mxCell>
        <mxCell id="q9qTEmQOXEux0ovmEw0c-1582" value="&lt;span style=&quot;font-size: 12px&quot;&gt;autres projets pilote&lt;/span&gt;" style="ellipse;whiteSpace=wrap;html=1;shadow=0;fontSize=20;fontColor=#FFFFFF;strokeColor=none;strokeWidth=3;fillColor=#F08705;" vertex="1" parent="1">
          <mxGeometry x="1150" y="161.5" width="120" height="60" as="geometry" />
        </mxCell>
        <mxCell id="q9qTEmQOXEux0ovmEw0c-1592" value="" style="edgeStyle=none;orthogonalLoop=1;jettySize=auto;html=1;endArrow=none;strokeColor=#F08E81;strokeWidth=3;" edge="1" parent="1" source="q9qTEmQOXEux0ovmEw0c-1588" target="1352">
          <mxGeometry relative="1" as="geometry" />
        </mxCell>
        <mxCell id="q9qTEmQOXEux0ovmEw0c-1588" value="Documentation" style="rounded=1;fillColor=#f08e81;strokeColor=none;strokeWidth=3;shadow=0;html=1;fontColor=#FFFFFF;" vertex="1" parent="1">
          <mxGeometry x="1500" y="261.5" width="120" height="40" as="geometry" />
        </mxCell>
        <mxCell id="q9qTEmQOXEux0ovmEw0c-1594" value="" style="edgeStyle=none;orthogonalLoop=1;jettySize=auto;html=1;fontSize=14;endArrow=none;strokeColor=#F08E81;strokeWidth=3;entryX=0.777;entryY=0.064;entryDx=0;entryDy=0;entryPerimeter=0;" edge="1" parent="1" source="q9qTEmQOXEux0ovmEw0c-1593" target="1352">
          <mxGeometry relative="1" as="geometry" />
        </mxCell>
        <mxCell id="q9qTEmQOXEux0ovmEw0c-1593" value="XLDeploy MyCloud" style="rounded=1;fillColor=#f08e81;strokeColor=none;strokeWidth=3;shadow=0;html=1;fontColor=#FFFFFF;" vertex="1" parent="1">
          <mxGeometry x="1400" y="133" width="120" height="40" as="geometry" />
        </mxCell>
        <mxCell id="q9qTEmQOXEux0ovmEw0c-1599" value="" style="edgeStyle=none;orthogonalLoop=1;jettySize=auto;html=1;endArrow=none;strokeColor=#F5AF58;strokeWidth=3;entryX=1;entryY=0;entryDx=0;entryDy=0;" edge="1" parent="1" source="q9qTEmQOXEux0ovmEw0c-1597" target="1355">
          <mxGeometry relative="1" as="geometry" />
        </mxCell>
        <mxCell id="q9qTEmQOXEux0ovmEw0c-1597" value="SÃ©curitÃ© / Checkmarx" style="rounded=1;fillColor=#f5af58;strokeColor=none;strokeWidth=3;shadow=0;html=1;fontColor=#FFFFFF;" vertex="1" parent="1">
          <mxGeometry x="1320" y="600" width="120" height="40" as="geometry" />
        </mxCell>
      </root>
    </mxGraphModel>
  </diagram>
</mxfile>
